<svg width="2200" height="1305" viewBox="0 0 2200 1305" fill="none" xmlns="http://www.w3.org/2000/svg">
<path fill-rule="evenodd" clip-rule="evenodd" d="M1909.55 18.6772C1937.19 -7.83591 1981.39 -5.87375 2006.57 22.985L2061.06 17.6691C2083.33 15.498 2104.16 28.9424 2111.35 50.1219C2116.29 64.6991 2127.91 76.033 2142.61 80.616L2147.89 82.2624C2180.21 92.3374 2197.44 127.461 2185.64 159.177L2171.27 197.796C2210.92 227.525 2209.25 287.516 2168.01 315L2120.06 346.962C2104.8 357.136 2092.25 370.887 2083.51 387.015L2076.87 399.277C2070.63 410.78 2063.08 421.52 2054.37 431.28L1546.27 1079.27V1305H1385.39C1411.14 1260.11 1425.87 1208.08 1425.87 1152.62C1425.87 983.199 1288.5 845.857 1119.04 845.857C949.578 845.858 812.206 983.199 812.206 1152.62C812.206 1208.08 826.932 1260.11 852.684 1305H724.012V1032.24L147.686 432.309C137.618 421.878 129.012 410.128 122.107 397.383L116.492 387.015C107.753 370.887 95.2036 357.136 79.9385 346.962L31.9868 315C-9.24933 287.516 -10.9155 227.525 28.7323 197.796L14.3591 159.18C2.55519 127.462 19.7941 92.3372 52.1087 82.2624L57.3866 80.616C72.0855 76.0328 83.7067 64.6991 88.6548 50.1219C95.8439 28.9424 116.675 15.4997 138.94 17.6714L193.428 22.985C218.609 -5.87383 262.807 -7.83615 290.448 18.6772L317.463 44.5903C321.253 48.226 324.759 52.1481 327.95 56.3195L411.145 165.09L665.169 376.774L646.71 267.386L747.531 311.065C750.519 308.935 752.368 307.922 752.416 307.896C752.684 307.782 945.059 225.789 1112.27 225.562C1237.29 225.392 1381.29 269.566 1449.53 293.271L1615.59 233.114L1594.7 326.877L1788.86 165.088L1872.05 56.3195C1875.24 52.1477 1878.75 48.2263 1882.54 44.5903L1909.55 18.6772ZM989.295 435.677C1074.57 516.26 1155.85 500.031 1184.21 492.943L1180.21 476.975C1154.42 483.421 1080.02 498.765 1000.6 423.714L989.295 435.677ZM913.729 268.421C880.088 268.422 852.815 295.688 852.815 329.322C852.815 362.956 880.088 390.225 913.729 390.225C947.371 390.225 974.646 362.956 974.646 329.322C974.646 295.688 947.372 268.421 913.729 268.421ZM1285.99 268.421C1252.35 268.421 1225.08 295.688 1225.08 329.322C1225.08 362.956 1252.35 390.225 1285.99 390.225C1319.63 390.225 1346.9 362.956 1346.91 329.322C1346.91 295.688 1319.63 268.421 1285.99 268.421ZM242.416 160.58C222.66 162.776 201.087 145.964 165.996 176.757C137.501 201.763 144.417 232.108 146.322 253.312C147.574 310.562 138.265 338.081 162.783 368.209C167.775 374.343 174.12 379.369 181.347 382.583C216.168 398.069 243.7 379.78 264.947 347.403C279.396 325.385 297.593 305.717 321.73 295.177C364.051 276.697 394.142 257.137 366.071 205.656C334.443 160.586 295.831 176.728 242.416 160.58ZM2034 176.757C1998.91 145.964 1977.34 162.775 1957.58 160.58C1904.17 176.728 1865.56 160.586 1833.93 205.656C1805.86 257.138 1835.95 276.697 1878.27 295.177C1902.41 305.717 1920.6 325.383 1935.05 347.4C1956.3 379.778 1983.83 398.069 2018.65 382.583C2025.88 379.369 2032.23 374.343 2037.22 368.209C2061.74 338.081 2052.43 310.56 2053.68 253.31C2055.58 232.106 2062.5 201.763 2034 176.757ZM1088.47 325.937C1075.8 325.938 1067.88 339.654 1074.22 350.627L1086.73 372.301C1093.07 383.272 1108.91 383.272 1115.24 372.301L1127.76 350.627C1134.1 339.654 1126.18 325.937 1113.5 325.937H1088.47ZM95.1753 240.313C72.9373 220.121 42.1205 217.825 26.3459 235.185C10.5718 252.547 15.8123 282.991 38.0502 303.184C60.2884 323.376 91.1029 325.67 106.877 308.309C122.651 290.948 117.412 260.505 95.1753 240.313ZM2173.65 235.185C2157.88 217.824 2127.06 220.119 2104.83 240.311C2082.59 260.503 2077.35 290.948 2093.12 308.309C2108.9 325.67 2139.71 323.376 2161.95 303.184C2184.19 282.991 2189.43 252.547 2173.65 235.185ZM107.784 121.425C83.9854 99.8159 51.0069 97.3602 34.1251 115.939C17.2434 134.519 22.8523 167.101 46.6516 188.712C70.4511 210.321 103.429 212.777 120.311 194.197C137.192 175.617 131.583 143.035 107.784 121.425ZM2165.88 115.939C2148.99 97.3593 2116.02 99.8158 2092.22 121.425C2068.42 143.035 2062.81 175.617 2079.69 194.197C2096.57 212.777 2129.55 210.321 2153.35 188.712C2177.15 167.101 2182.76 134.519 2165.88 115.939ZM196.033 57.9567C177.791 31.4894 146.244 21.58 125.571 35.8232C104.897 50.0674 102.927 83.0714 121.168 109.54C139.409 136.007 170.957 145.917 191.63 131.673C212.302 117.428 214.274 84.4244 196.033 57.9567ZM2074.43 35.8232C2053.76 21.5791 2022.21 31.4891 2003.97 57.9567C1985.73 84.4248 1987.7 117.429 2008.37 131.673C2029.04 145.917 2060.59 136.007 2078.83 109.54C2097.07 83.0717 2095.1 50.0676 2074.43 35.8232ZM313.092 60.4918C295.651 35.4002 265.623 26.0994 246.024 39.7177C226.426 53.3368 224.677 84.7186 242.117 109.81C259.559 134.902 289.587 144.203 309.185 130.585C328.783 116.965 330.532 85.5833 313.092 60.4918ZM1953.98 39.7154C1934.38 26.0967 1904.35 35.3982 1886.91 60.4895C1869.47 85.5816 1871.22 116.966 1890.82 130.585C1910.41 144.203 1940.44 134.902 1957.88 109.81C1975.32 84.7186 1973.57 53.3345 1953.98 39.7154Z" fill="#0088FF"/>
</svg>
